<svg xmlns="http://www.w3.org/2000/svg" version="1.1" xmlns:xlink="http://www.w3.org/1999/xlink" xmlns:svgjs="http://svgjs.com/svgjs" width="1440" height="700" preserveAspectRatio="none" ><g mask="url(&quot;#SvgjsMask1629&quot;)" fill="none"><rect width="1440" height="560" x="0" y="0" fill="url(#SvgjsLinearGradient1630)"></rect><path d="M243.4703311723765 39.64187887978876L385.4458324322239 121.61147275049372 467.41542630292884-20.364028509353673 325.4399250430814-102.33362238005863z" fill="rgba(28, 83, 142, 0.4)" class="triangle-float3"></path><path d="M207.41476779132444 525.5680728016027L290.59155866958054 590.6806549140834 305.03649792985794 499.4788977801176z" fill="rgba(28, 83, 142, 0.4)" class="triangle-float3"></path><path d="M860.423,162.545C892.65,162.281,927.318,156.38,944.112,128.874C961.458,100.464,954.67,64.577,937.736,35.92C921.132,7.821,893.047,-13.695,860.423,-12.75C829.103,-11.843,806.66,13.342,790.499,40.186C773.635,68.198,758.102,101.876,774.325,130.265C790.624,158.787,827.573,162.814,860.423,162.545" fill="rgba(28, 83, 142, 0.4)" class="triangle-float1"></path><path d="M309.99 547.93 a101.55 101.55 0 1 0 203.1 0 a101.55 101.55 0 1 0 -203.1 0z" fill="rgba(28, 83, 142, 0.4)" class="triangle-float3"></path><path d="M95.74088996303045 109.29654660003112L193.50276946906945 191.48739920700808 214.80630233127116 81.8902236664126z" fill="rgba(28, 83, 142, 0.4)" class="triangle-float3"></path><path d="M279.636,345.379C306.239,346.957,335.92,345.329,350.88,323.274C367.294,299.076,365.346,266.411,350.142,241.435C335.503,217.386,307.704,204.044,279.636,206.237C254.704,208.185,237.647,229.041,225.935,251.137C215.124,271.534,210.235,295.555,221.664,315.612C233.191,335.84,256.395,344.001,279.636,345.379" fill="rgba(28, 83, 142, 0.4)" class="triangle-float3"></path><path d="M-71.87447156208628 286.99593048055294L6.051392774388177 370.56118909661654 89.61665139045175 292.63532476014205 11.690787053977303 209.07006614407848z" fill="rgba(28, 83, 142, 0.4)" class="triangle-float2"></path><path d="M79.74573855675288 494.5406766521373L70.7750135770192 409.18992977635264-14.575733298765414 418.1606547560864-5.605008319031725 503.51140163187097z" fill="rgba(28, 83, 142, 0.4)" class="triangle-float1"></path><path d="M865.33 204.86 a133.55 133.55 0 1 0 267.1 0 a133.55 133.55 0 1 0 -267.1 0z" fill="rgba(28, 83, 142, 0.4)" class="triangle-float3"></path><path d="M761.4755878689448 270.4562093966677L624.8507428873884 346.1885976232759 700.5831311139965 482.8134426048323 837.2079760955529 407.0810543782241z" fill="rgba(28, 83, 142, 0.4)" class="triangle-float2"></path></g><defs><mask id="SvgjsMask1629"><rect width="1440" height="560" fill="#ffffff"></rect></mask><linearGradient x1="15.28%" y1="-39.29%" x2="84.72%" y2="139.29%" gradientUnits="userSpaceOnUse" id="SvgjsLinearGradient1630"><stop stop-color="rgba(14, 42, 71, 1)" offset="0"></stop><stop stop-color="rgba(84, 140, 255, 1)" offset="0.82"></stop></linearGradient><style>
            @keyframes float1 {
                0%{transform: translate(0, 0)}
                50%{transform: translate(-10px, 0)}
                100%{transform: translate(0, 0)}
            }

            .triangle-float1 {
                animation: float1 5s infinite;
            }

            @keyframes float2 {
                0%{transform: translate(0, 0)}
                50%{transform: translate(-5px, -5px)}
                100%{transform: translate(0, 0)}
            }

            .triangle-float2 {
                animation: float2 4s infinite;
            }

            @keyframes float3 {
                0%{transform: translate(0, 0)}
                50%{transform: translate(0, -10px)}
                100%{transform: translate(0, 0)}
            }

            .triangle-float3 {
                animation: float3 6s infinite;
            }
        </style></defs></svg>